<svg width="2310" height="2310" xmlns="http://www.w3.org/2000/svg" xmlns:xlink="http://www.w3.org/1999/xlink" xml:space="preserve" overflow="hidden"><defs><clipPath id="clip0"><rect x="2370" y="200" width="2310" height="2310"/></clipPath></defs><g clip-path="url(#clip0)" transform="translate(-2370 -200)"><rect x="2370" y="200" width="2310" height="2310" fill="#00B0F0"/><path d="M3129 1355C3129 1136.3 3306.3 959 3525 959 3743.71 959 3921 1136.3 3921 1355 3921 1573.7 3743.71 1751 3525 1751 3306.3 1751 3129 1573.7 3129 1355Z" fill="#FFFFFF" fill-rule="evenodd"/><path d="M3360 1355C3360 1263.87 3433.87 1190 3525 1190 3616.13 1190 3690 1263.87 3690 1355 3690 1446.13 3616.13 1520 3525 1520 3433.87 1520 3360 1446.13 3360 1355Z" fill="#FFC000" fill-rule="evenodd"/><path d="M3360 495C3360 403.873 3433.87 330 3525 330 3616.13 330 3690 403.873 3690 495 3690 586.127 3616.13 660 3525 660 3433.87 660 3360 586.127 3360 495Z" fill="#FFFFFF" fill-rule="evenodd"/><path d="M3360 879.989 3360 605C3360 635.393 3428.48 707.168 3519.59 707.168 3610.7 707.168 3690 635.393 3690 605L3690 879.989C3690 910.382 3616.11 935 3525 935 3433.89 935 3360 910.382 3360 879.989Z" fill="#FFFFFF" fill-rule="evenodd"/><path d="M3690 2215C3690 2306.13 3616.13 2380 3525 2380 3433.87 2380 3360 2306.13 3360 2215 3360 2123.87 3433.87 2050 3525 2050 3616.13 2050 3690 2123.87 3690 2215Z" fill="#FFFFFF" fill-rule="evenodd"/><path d="M3690 1831.01 3690 2106C3690 2075.61 3621.53 2003.83 3530.41 2003.83 3439.3 2003.83 3360 2075.61 3360 2106L3360 1831.01C3360 1800.62 3433.89 1776 3525 1776 3616.11 1776 3690 1800.62 3690 1831.01Z" fill="#FFFFFF" fill-rule="evenodd"/><path d="M4388 1190C4479.13 1190 4553 1263.87 4553 1355 4553 1446.13 4479.13 1520 4388 1520 4296.87 1520 4223 1446.13 4223 1355 4223 1263.87 4296.87 1190 4388 1190Z" fill="#FFFFFF" fill-rule="evenodd"/><path d="M4003.01 1190 4278 1190C4247.61 1190 4175.83 1258.48 4175.83 1349.59 4175.83 1440.7 4247.61 1520 4278 1520L4003.01 1520C3972.62 1520 3948 1446.11 3948 1355 3948 1263.89 3972.62 1190 4003.01 1190Z" fill="#FFFFFF" fill-rule="evenodd"/><path d="M2661 1520C2569.87 1520 2496 1446.13 2496 1355 2496 1263.87 2569.87 1190 2661 1190 2752.13 1190 2826 1263.87 2826 1355 2826 1446.13 2752.13 1520 2661 1520Z" fill="#FFFFFF" fill-rule="evenodd"/><path d="M3045.99 1520 2771 1520C2801.39 1520 2873.17 1451.53 2873.17 1360.41 2873.17 1269.3 2801.39 1190 2771 1190L3045.99 1190C3076.38 1190 3101 1263.89 3101 1355 3101 1446.11 3076.38 1520 3045.99 1520Z" fill="#FFFFFF" fill-rule="evenodd"/><path d="M2808.54 830.718C2745.32 765.084 2747.28 660.63 2812.92 597.413 2878.55 534.197 2983 536.156 3046.22 601.79 3109.44 667.424 3107.48 771.878 3041.84 835.094 2976.21 898.311 2871.76 896.351 2808.54 830.718Z" fill="#FFFFFF" fill-rule="evenodd"/><path d="M3075.3 1107.68 2884.54 909.621C2905.62 931.511 3004.73 935.704 3070.36 872.498 3135.98 809.291 3143.3 702.584 3122.22 680.693L3312.98 878.753C3334.07 900.643 3297.93 969.631 3232.31 1032.84 3166.68 1096.04 3096.39 1129.57 3075.3 1107.68Z" fill="#FFFFFF" fill-rule="evenodd"/><path d="M0 165C-4.20134e-14 73.873 73.873 0 165 0 256.127-4.20134e-14 330 73.873 330 165 330 256.127 256.127 330 165 330 73.873 330-6.30201e-14 256.127 0 165Z" fill="#FFFFFF" fill-rule="evenodd" transform="matrix(-0.720245 -0.69372 -0.69372 0.720245 4365.03 711.877)"/><path d="M55.011 0 330 0C299.607 0 227.832 68.475 227.832 159.588 227.832 250.701 299.607 330 330 330L55.011 330C24.618 330 0 256.113 0 165 0 73.887 24.618 0 55.011 0Z" fill="#FFFFFF" fill-rule="evenodd" transform="matrix(0.69372 -0.720245 -0.720245 -0.69372 3945.64 1147.3)"/><path d="M0 165C-4.20134e-14 73.873 73.873 0 165 0 256.127-4.20134e-14 330 73.873 330 165 330 256.127 256.127 330 165 330 73.873 330-6.30201e-14 256.127 0 165Z" fill="#FFFFFF" fill-rule="evenodd" transform="matrix(0.720245 0.69372 0.69372 -0.720245 2694.08 2016.03)"/><path d="M55.011 0 330 0C299.607 0 227.832 68.475 227.832 159.588 227.832 250.701 299.607 330 330 330L55.011 330C24.618 330 0 256.113 0 165 0 73.887 24.618 0 55.011 0Z" fill="#FFFFFF" fill-rule="evenodd" transform="matrix(-0.69372 0.720245 0.720245 0.69372 3113.47 1580.61)"/><path d="M4250.57 1897.19C4313.78 1962.83 4311.83 2067.28 4246.19 2130.5 4180.56 2193.71 4076.1 2191.75 4012.89 2126.12 3949.67 2060.49 3951.63 1956.03 4017.26 1892.82 4082.9 1829.6 4187.35 1831.56 4250.57 1897.19Z" fill="#FFFFFF" fill-rule="evenodd"/><path d="M3983.81 1620.23 4174.57 1818.29C4153.49 1796.4 4054.38 1792.21 3988.75 1855.41 3923.13 1918.62 3915.81 2025.33 3936.89 2047.22L3746.12 1849.16C3725.04 1827.27 3761.18 1758.28 3826.8 1695.07 3892.43 1631.86 3962.72 1598.34 3983.81 1620.23Z" fill="#FFFFFF" fill-rule="evenodd"/></g></svg>